<?xml version="1.0" standalone="no"?>
<!DOCTYPE svg PUBLIC "-//W3C//DTD SVG 20010904//EN"
 "http://www.w3.org/TR/2001/REC-SVG-20010904/DTD/svg10.dtd">
<svg version="1.0" xmlns="http://www.w3.org/2000/svg"
 width="231.000000pt" height="231.000000pt" viewBox="0 0 231.000000 231.000000"
 preserveAspectRatio="xMidYMid meet">
<metadata>
Created by potrace 1.15, written by Peter Selinger 2001-2017
</metadata>
<g transform="translate(0.000000,231.000000) scale(0.100000,-0.100000)"
fill="#000000" stroke="none">
<path d="M1110 2262 l0 -51 58 -5 c226 -23 304 -42 450 -113 71 -35 168 -100
244 -163 l37 -31 37 35 38 36 -30 31 c-78 84 -258 195 -398 246 -93 34 -198
54 -313 60 l-123 6 0 -51z"/>
<path d="M1016 1953 c-3 -16 -5 -45 -5 -65 l1 -38 88 0 88 0 -3 43 c-2 23 -4
52 -4 65 -1 21 -5 22 -80 22 -79 0 -79 0 -85 -27z"/>
<path d="M261 1893 c-146 -167 -245 -419 -258 -655 l-6 -118 44 0 c24 0 49 4
55 8 6 4 14 52 17 107 10 147 53 297 120 418 21 37 21 37 31 15 10 -25 13 -34
15 -47 0 -4 39 1 86 13 64 16 85 25 85 38 0 9 -5 20 -10 23 -6 4 -10 12 -9 18
1 7 -3 24 -9 39 -10 24 -14 26 -41 18 -16 -4 -32 -6 -35 -3 -3 3 -12 0 -21 -7
-29 -24 -28 -1 1 36 16 19 38 46 48 60 20 24 20 24 -5 50 -46 50 -53 49 -108
-13z"/>
<path d="M1835 1777 c-7 -12 -15 -40 -17 -62 l-3 -39 60 -16 c33 -9 70 -20 83
-24 12 -4 22 -4 23 1 0 4 3 17 5 28 15 66 16 95 3 95 -8 0 -27 7 -43 15 -16 9
-31 13 -33 11 -3 -2 -18 0 -34 4 -25 7 -32 5 -44 -13z"/>
<path d="M1020 1703 c-1 -32 -7 -69 -15 -83 -21 -36 -17 -169 4 -156 3 2 17
-2 31 -10 l25 -13 -32 -1 c-18 0 -33 -4 -33 -10 0 -5 -19 -21 -43 -34 -25 -15
-53 -42 -65 -65 -22 -39 -22 -44 -18 -347 4 -263 7 -310 20 -320 9 -6 55 -14
102 -17 48 -3 88 -8 89 -9 1 -2 -4 -50 -11 -108 -22 -164 -23 -153 11 -164 17
-6 32 -13 35 -17 6 -7 230 -31 292 -31 26 1 60 7 75 14 27 13 28 17 28 85 0
39 3 74 7 78 3 4 41 -3 83 -15 98 -27 177 -33 204 -13 16 10 21 25 21 55 0 42
33 178 50 209 5 9 21 61 36 115 14 55 33 111 40 126 24 47 11 166 -19 185 -7
5 -23 23 -36 41 -12 17 -28 32 -34 32 -7 0 -21 8 -32 16 -19 15 -18 16 17 12
33 -3 38 -1 57 33 16 28 21 53 20 110 0 41 4 89 9 107 9 27 8 33 -6 41 -29 15
-119 34 -133 29 -8 -3 -20 -27 -27 -53 -7 -26 -23 -61 -36 -78 -38 -52 -53
-147 -23 -147 7 0 21 -8 32 -16 19 -15 18 -16 -14 -12 -37 5 -95 -14 -153 -50
-37 -23 -61 -62 -73 -120 l-7 -34 -21 20 c-12 11 -38 23 -57 27 l-35 8 29 8
c16 5 33 6 37 4 18 -12 32 29 30 88 -1 34 -3 95 -4 135 -1 39 -4 72 -7 72 -3
0 -32 5 -65 10 -72 12 -95 6 -96 -23 -1 -55 -11 -58 -64 -19 -27 20 -59 38
-70 39 -36 6 -41 23 -7 23 28 0 32 4 43 43 10 36 9 50 -10 104 -11 34 -21 82
-21 107 l0 46 -80 0 -80 0 0 -57z m100 37 c0 -5 7 -10 15 -10 11 0 15 -11 15
-42 0 -25 11 -66 25 -97 14 -30 24 -55 23 -56 -10 -9 -177 -15 -182 -6 -4 5 5
35 19 67 14 31 25 73 25 93 0 28 5 39 23 47 29 15 37 16 37 4z m776 -207 c8
-12 9 -25 2 -43 -9 -23 -4 -110 9 -154 5 -17 1 -18 -28 -13 -46 8 -66 13 -117
27 l-43 11 27 37 c15 20 36 48 46 61 9 12 20 37 23 55 5 26 11 31 37 33 20 2
36 -4 44 -14z m-469 -124 c7 -7 10 -24 7 -38 -5 -23 13 -103 34 -160 4 -11
-11 -12 -89 -6 -52 3 -95 8 -97 10 -2 2 13 34 32 71 20 37 36 80 36 95 0 27
11 35 51 38 8 0 20 -4 26 -10z m-257 -209 c86 -14 100 -19 100 -34 0 -7 15
-18 33 -24 l32 -10 -32 -1 c-18 -1 -33 -5 -33 -11 0 -5 -19 -19 -42 -30 -32
-15 -44 -17 -50 -8 -7 12 -9 9 -7 -8 0 -4 -4 -10 -9 -13 -5 -3 -18 -31 -29
-61 l-21 -55 -86 -3 -86 -3 0 63 c0 35 -3 87 -6 115 -6 51 -6 53 21 63 23 9
98 24 140 29 6 0 39 -4 75 -9z m513 -164 c69 -7 197 -62 197 -84 0 -19 -48
-180 -61 -204 -8 -15 -16 -15 -101 8 -166 44 -158 40 -157 87 1 23 5 53 9 67
l8 25 1 -25 c1 -20 3 -22 11 -10 9 13 10 13 10 0 0 -13 1 -13 10 0 5 8 9 22 9
30 0 10 -2 11 -6 3 -2 -7 -9 -13 -15 -13 -6 0 -8 6 -5 14 3 8 -5 18 -19 25
-49 22 -22 96 31 86 11 -2 46 -6 78 -9z m-239 -172 l58 -18 -6 -68 c-3 -37
-11 -90 -17 -118 -13 -59 -5 -58 -194 -35 -66 8 -124 15 -128 15 -8 0 -2 136
9 207 4 27 10 32 37 36 63 9 183 0 241 -19z"/>
<path d="M1326 1638 c-13 -63 -12 -89 3 -97 9 -5 49 -10 90 -12 l74 -4 3 61 4
61 -53 7 c-96 11 -116 8 -121 -16z"/>
<path d="M374 1546 c-64 -20 -64 -20 -48 -79 8 -28 11 -65 8 -80 -6 -30 13
-124 29 -142 6 -6 25 -9 44 -7 40 5 43 -5 6 -19 -35 -12 -110 -110 -118 -153
-6 -32 42 -238 70 -301 19 -41 65 -215 71 -267 3 -23 10 -48 16 -55 17 -21 84
-15 207 18 135 36 220 74 231 103 7 19 -3 54 -20 66 -7 6 -52 172 -57 215 -2
16 -14 72 -28 123 -14 52 -25 102 -25 113 0 34 -41 104 -73 125 -45 30 -106
48 -152 46 -37 -2 -39 -1 -21 13 11 8 26 15 33 15 13 0 16 12 15 64 -1 30 -31
96 -43 96 -7 0 -11 9 -32 75 -11 34 -17 40 -42 42 -17 1 -48 -4 -71 -11z m67
-16 c5 0 9 -11 9 -24 0 -14 22 -53 50 -91 l50 -66 -26 -9 c-14 -6 -31 -10 -38
-10 -7 0 -16 -3 -20 -7 -7 -7 -10 -8 -70 -19 -34 -6 -38 -5 -33 12 14 46 18
131 8 157 -10 25 -8 31 11 48 13 10 29 16 36 14 8 -3 18 -5 23 -5z m275 -527
c3 -16 12 -53 19 -83 7 -30 16 -71 19 -90 l6 -36 -102 -27 c-135 -35 -207 -51
-211 -46 -11 16 -63 210 -58 218 4 5 38 25 76 43 69 32 121 44 202 47 39 1 43
-2 49 -26z"/>
<path d="M2197 1071 c-4 -55 -18 -137 -32 -187 -33 -119 -122 -294 -190 -374
-30 -36 -58 -71 -61 -78 -4 -8 8 -28 29 -50 36 -36 36 -36 58 -16 43 39 136
172 181 259 75 147 128 347 128 486 l0 59 -53 0 -54 0 -6 -99z"/>
<path d="M386 361 l-37 -38 48 -43 c183 -161 429 -263 673 -277 l110 -6 0 55
0 55 -99 7 c-218 15 -459 114 -614 252 -20 19 -38 34 -40 34 -2 0 -20 -17 -41
-39z"/>
</g>
</svg>
